<?xml version="1.0" standalone="no"?><!DOCTYPE svg PUBLIC "-//W3C//DTD SVG 1.1//EN" "http://www.w3.org/Graphics/SVG/1.1/DTD/svg11.dtd"><svg t="1732945227523" class="icon" viewBox="0 0 3118 1024" version="1.1" xmlns="http://www.w3.org/2000/svg" p-id="2394" xmlns:xlink="http://www.w3.org/1999/xlink" width="608.984375" height="200"><path d="M967.871658 472.299465c0-49.283422-1.368984-90.352941-4.106952-123.208556 12.320856 41.069519 24.641711 75.294118 35.593583 104.042781l124.57754 314.86631H1191.016043l123.208556-299.807487c13.68984-32.855615 26.010695-72.55615 39.700535-119.101604-2.737968 47.914439-5.475936 88.983957-5.475936 123.208556V766.631016h86.245989V258.737968h-117.73262l-120.470588 297.069519c-13.68984 34.224599-26.010695 68.449198-35.593583 104.04278-9.582888-35.593583-20.534759-69.818182-34.224599-104.04278l-117.732621-297.069519h-121.839572V766.631016h79.40107l1.368984-294.331551zM1640.042781 631.101604h203.978609l50.652407 136.898396h94.459893l-203.97861-509.262032h-84.877005L1500.406417 766.631016h88.983957l50.652407-135.529412z m79.401069-216.299465c8.213904-21.903743 15.058824-45.176471 21.903744-65.71123 6.84492 24.641711 15.058824 46.545455 21.903743 67.080214l54.759358 145.112299h-151.957219l53.390374-146.481283zM2127.40107 743.358289c41.069519 21.903743 86.245989 32.855615 132.791443 31.486631 31.486631 0 64.342246-4.106952 95.828877-10.951872s62.973262-17.796791 91.721926-31.486631V517.475936H2245.13369v67.080214h117.73262v102.673797c-15.058824 5.475936-31.486631 9.582888-47.914438 12.320855-16.427807 2.737968-34.224599 4.106952-50.652407 4.106952-32.855615 1.368984-64.342246-6.84492-93.090909-24.641711-24.641711-16.427807-42.438503-39.700535-53.390374-67.080214-12.320856-30.117647-17.796791-62.973262-16.427808-97.197861-1.368984-36.962567 6.84492-72.55615 21.903744-105.411765 13.68984-27.379679 35.593583-50.652406 61.604278-65.71123 28.748663-15.058824 60.235294-23.272727 93.090909-23.272727 46.545455 1.368984 90.352941 12.320856 131.42246 32.855615l21.903743-67.080214c-23.272727-10.951872-49.283422-20.534759-73.925134-26.010695-27.379679-6.84492-56.128342-9.582888-83.508021-9.582888-46.545455-1.368984-93.090909 9.582888-134.160428 30.117647-39.700535 20.534759-72.55615 50.652406-94.459893 90.352941-24.641711 45.176471-36.962567 94.459893-34.224599 145.1123-1.368984 47.914439 9.582888 94.459893 30.117647 136.898396 19.165775 38.331551 49.283422 69.818182 86.24599 90.352941M757.048128 257.368984H618.780749l-50.652407 75.294118 67.080214 102.673796 121.839572-177.967914zM2862.545455 694.074866h-213.561498V538.010695h191.657754v-68.449198h-191.657754V329.925134h202.609626l8.213904-72.55615H2560V766.631016h294.331551l8.213904-72.55615zM258.737968 768h134.160428l173.860962-265.582888-168.385026-243.679144H257.368984l179.336898 249.15508-177.967914 260.106952zM757.048128 768L635.208556 588.663102l-67.080214 102.673796 50.652407 75.294118h138.267379z" fill="#C11733" p-id="2395"></path></svg>