<?xml version="1.0" encoding="UTF-8" standalone="no"?>
<svg
   xmlns:dc="http://purl.org/dc/elements/1.1/"
   xmlns:cc="http://creativecommons.org/ns#"
   xmlns:rdf="http://www.w3.org/1999/02/22-rdf-syntax-ns#"
   xmlns:svg="http://www.w3.org/2000/svg"
   xmlns="http://www.w3.org/2000/svg"
   viewBox="0 0 470.17334 88.839996"
   height="80"
   width="250"
   xml:space="preserve"
   id="svg2"
   version="1.1"><metadata
     id="metadata8"><rdf:RDF><cc:Work
         rdf:about=""><dc:format>image/svg+xml</dc:format><dc:type
           rdf:resource="http://purl.org/dc/dcmitype/StillImage" /></cc:Work></rdf:RDF></metadata><defs
     id="defs6" /><g
     transform="matrix(1.3333333,0,0,-1.3333333,0,88.84)"
     id="g10"><g
       transform="scale(0.1)"
       id="g12"><path
         id="path14"
         style="fill:#284496;fill-opacity:1;fill-rule:nonzero;stroke:none"
         d="m 610.277,650.797 h 168.36 V 337.766 H 990.316 V 246.777 H 610.277 v 404.02" /><path
         id="path16"
         style="fill:#284496;fill-opacity:1;fill-rule:nonzero;stroke:none"
         d="m 2743.86,230.586 c -131.18,0 -241.56,39.035 -241.56,146.59 v 273.621 h 162.95 v -261.16 c 0,-50.539 37.35,-73.621 78.61,-73.621 41.31,0 78.58,23.082 78.58,73.621 v 261.16 h 162.94 V 377.176 c 0,-107.555 -110.29,-146.59 -241.52,-146.59" /><path
         id="path18"
         style="fill:#284496;fill-opacity:1;fill-rule:nonzero;stroke:none"
         d="m 3326.76,543.387 h 172.21 c -9.02,92.781 -139.66,120.476 -240.86,120.476 -101.13,0 -232.99,-33.07 -232.99,-134.297 0,-73.972 72.36,-97.605 123.14,-107.898 36.03,-7.273 96.08,-17.492 126.12,-24.105 41.76,-9.149 63.42,-17.645 63.42,-42.274 0,-26.344 -24.33,-39.789 -74.18,-39.789 -47.29,0 -75.58,14.68 -83.42,48.016 l -175.48,-0.036 c 10.31,-110.023 151.32,-134.105 262.58,-134.105 112,0 245.83,26.633 245.83,135.719 0,59.215 -38.11,98.636 -132.02,117.429 -49.15,9.821 -117.27,22.598 -143.44,27.122 -34.75,6.039 -47.1,18.554 -47.1,35.593 0,17.614 16.83,36.063 65.52,36.063 41.14,0 63.34,-12.008 70.67,-37.914" /><path
         id="path20"
         style="fill:#284496;fill-opacity:1;fill-rule:nonzero;stroke:none"
         d="m 2153.75,483.734 v 78.805 h 106.83 c 26.6,0 49.34,-12.441 49.34,-38.07 0,-22.633 -13.07,-40.735 -49.55,-40.735 z m 165.77,-88.187 c 121.23,0 152.11,77.105 152.11,126.367 0,45.313 -26.08,128.883 -151.95,128.883 h -325.9 l 0.02,-404.02 h 159.98 v 148.77 h 165.74" /><path
         id="path22"
         style="fill:#284496;fill-opacity:1;fill-rule:nonzero;stroke:none"
         d="m 1192.83,640.977 4.6,9.82 h 168.88 L 1190.6,382.828 V 246.777 H 1030.79 V 382.828 L 855.605,650.797 h 168.305 l 4.7,-9.82 76.17,-133.789 c 5.03,-8.559 6.54,-8.559 12.08,0 l 75.97,133.789" /><path
         id="path24"
         style="fill:#284496;fill-opacity:1;fill-rule:nonzero;stroke:none"
         d="m 1703.68,246.777 2.99,8.067 85.84,199.605 c 2.22,5.239 7.37,3.817 7.44,-0.765 V 246.777 h 137.81 v 404.02 h -166.55 l -3.06,-8.688 -102.66,-231.757 c -3.78,-8.762 -7.28,-8.731 -11.08,0 l -102.61,231.757 -3.07,8.688 h -166.58 v -404.02 h 137.86 v 206.907 c 0.05,4.582 5.2,6.004 7.46,0.765 l 85.78,-199.605 3,-8.067 h 87.43" /><path
         id="path26"
         style="fill:#284496;fill-opacity:1;fill-rule:nonzero;stroke:none"
         d="m 402.754,448.77 c 0,81.738 -42.289,132.183 -112.399,132.183 -70.14,0 -112.394,-50.445 -112.394,-132.183 0,-81.7 42.254,-132.09 112.394,-132.09 70.11,0 112.399,50.39 112.399,132.09 z m 169.508,0 c 0,-135.704 -117.731,-217.45 -281.907,-217.45 -164.195,0 -281.90187,81.746 -281.90187,217.45 0,135.793 117.70687,217.503 281.90187,217.503 164.176,0 281.907,-81.71 281.907,-217.503" /><path
         id="path28"
         style="fill:#fab20b;fill-opacity:1;fill-rule:nonzero;stroke:none"
         d="M 0,45.3906 1763.16,0 3526.33,45.3906 V 66.1641 L 1763.16,111.652 0,66.1641 V 45.3906" /></g></g></svg>