<?xml version="1.0" encoding="utf-8"?>
<svg xmlns="http://www.w3.org/2000/svg" viewBox="187.227 39.582 404.4 195.953">
  <g fill="none" stroke="gray" stroke-width="2">
    <path d="M588.98 66.57a24.07 24.07 0 0 0-24.07-24.07H213.85a24.07 24.07 0 0 0-24.07 24.07v141.66a24.07 24.07 0 0 0 24.07 24.07h351.06a24.07 24.07 0 0 0 24.07-24.07V66.57" vector-effect="non-scaling-stroke"/>
    <path d="M230.7 96.58c12.73.7 26.04.49 29.06-13.56 2.39-11.13-3.12-21.66-14.92-22.84-8.39-.85-18.25-.51-30.63-.38q-.46.01-.46.47v51.96q0 .49.49.49l15.23.09q.53 0 .53-.53V97.25q0-.7.7-.67M527.498 60.063a.3.3 0 0 0-.3-.3l-13.88-.025a.3.3 0 0 0-.3.3l-.016 8.94a.3.3 0 0 0 .3.3l13.88.024a.3.3 0 0 0 .3-.3l.016-8.94M316 77.75v-1.98a.99.99 0 0 0-.98-.99l-12.23-.1q-.54 0-.54.53v36.94q0 .59.59.59l13.28.05q.52 0 .59-.52c.78-5.89-.14-12.39.22-19.54q.18-3.53 1.26-5.07c2.89-4.13 9.32-2.44 9.31 3.38q-.02 10.57.01 21.2 0 .48.48.48l14.34.09a.4.4 0 0 0 .4-.4q.06-10.56 0-21.16-.04-6.08-1-8.76c-4.09-11.44-16.93-10.8-24.9-4.34q-.83.67-.83-.4M483.63 77.85l-.07-2.45q-.02-.65-.66-.66l-12.15-.22a.74.73.4 0 0-.75.73l-.08 36.98q-.01.55.55.55l13.53-.05q.49 0 .49-.48.03-9.31.01-18.63-.01-3.39.47-4.69c1.42-3.86 7.98-4.81 9.63-.98q.61 1.43.63 5.31.03 9.47.02 18.98 0 .51.51.51h13.98q.49 0 .51-.49.6-18.82.03-25.74c-1.16-14.02-16.43-16.33-25.83-8.3q-.79.67-.82-.37M284.61 109.96l.56 2.19q.14.56.72.56l13.42.12q.57.01.47-.56-.34-1.91-.65-3.83c-1.85-11.45 4.84-29.17-11.08-33.55-8.67-2.39-28.02-1.64-26.7 12.23q.06.63.7.65l11.58.31q.46.01.57-.43c2.73-10.38 16.24-.72 7.32 1.62-5.95 1.56-13.38 1.85-18.2 5.56-4.3 3.32-4.89 9.35-2.15 13.82 4.69 7.7 16.76 6.19 22.8 1.1q.49-.41.64.21M369.7 110.1l.14 1.43a1.37 1.36-3 0 0 1.36 1.22h13.52q.48 0 .33-.45c-3.1-9.44 1.13-21.42-2.57-29.85-5.56-12.67-37.53-12.22-36.2 4.8q.04.49.52.5l11.87.38q.49.02.59-.47c2.03-10.27 15.63-.82 8.24 1.35-6.75 1.99-22.8 2.18-23 13.25-.25 13.74 16.5 14 24.46 7.53q.65-.52.74.31M401.28 85.82a1.62 1.61-39.1 0 1 .27-2.61q5.65-3.22 8.59 2.14.22.4.67.4h12.35a.37.37 0 0 0 .36-.43c-1.55-8.91-8.14-11.08-16.42-11.5-7.46-.38-18.3 1.29-20.33 9.91-3.04 12.9 12.52 13.96 20.48 15.53 3.97.78 3.78 5.19.03 5.96q-6.36 1.3-7.82-4.57-.1-.4-.52-.4h-12.2q-.57 0-.57.57c.03 14.94 22.61 15.16 31.54 10.9 7.33-3.49 9.28-13.03 4.21-18.34-4.01-4.2-12.21-5.58-18.09-6.49q-1.64-.25-2.55-1.07" vector-effect="non-scaling-stroke"/>
    <path d="M432.32 78.71c-10.7 8.79-8.35 27.52 4.42 33.3 5.93 2.68 13.8 2.63 19.79-.13 10.99-5.08 14.58-18.56 8.47-28.8-6.45-10.81-23.49-11.92-32.68-4.37M547.94 84.86c2.97-1.36 6.7-.01 7.52 3.53q.14.57.72.57l12.3.12a.42.42 0 0 0 .43-.47c-3.13-24.54-47.61-17.26-38.21 12.41 5.78 18.24 36.91 17.75 38.67-3.27a.69.69 0 0 0-.68-.75h-11.7q-.53 0-.7.5c-1.32 3.72-2.08 7.4-7.37 5.84-7.17-2.1-7.24-15.62-.98-18.48" vector-effect="non-scaling-stroke"/>
    <path d="M527.28 74.96a.26.26 0 0 0-.26-.26h-13.76a.26.26 0 0 0-.26.26v37.56a.26.26 0 0 0 .26.26h13.76a.26.26 0 0 0 .26-.26V74.96M585.18 125.84c-16.81-.26-33.59-.1-50.26-.09q-170.71.02-341.43-.01a.51.5 90 0 0-.5.51q.05 39.31-.02 78.65c-.03 14.78 7.31 24.3 23.28 24.3q170.91.04 341.82.05 9.99 0 14.17-1.5c9.58-3.46 13.49-11.66 13.51-21.51q.06-39.87-.03-79.85 0-.54-.54-.55M230.2 72.96l-.04 10.56a.2.2 0 0 0 .2.21l8.58.03a5.82 4.86.2 0 0 5.84-4.84v-1.24a5.82 4.86.2 0 0-5.8-4.88l-8.58-.03a.2.2 0 0 0-.2.19M284.16 96.33c-2.82 1-7.26 1.99-9.41 3.17-2.89 1.59-1.61 5.25 1.59 5.45q8.74.55 8.46-8.18a.48.48 0 0 0-.64-.44M369.08 96.36c-2.71.86-7.09 1.89-9.33 3.13-3.34 1.85-1.05 5.76 1.73 5.76q8.63 0 8.26-8.44-.03-.65-.66-.45M446.67 104.78a10.53 6.49 90 0 0 6.49-10.53 10.53 6.49 90 0 0-6.49-10.53 10.53 6.49 90 0 0-6.49 10.53 10.53 6.49 90 0 0 6.49 10.53" vector-effect="non-scaling-stroke"/>
    <path d="M229.58 202.25a.33.33 0 0 1-.33-.33v-61.09a.33.33 0 0 0-.33-.33h-14.84a.33.33 0 0 0-.33.33v73.34a.33.33 0 0 0 .33.33h66.81a.33.33 0 0 0 .33-.33l.09-11.59a.33.33 0 0 0-.33-.33h-51.4M309.21 204.47c-3.17-.59-5.24-2.52-5.22-5.73q.07-20.32-.02-40.72 0-.52-.52-.52h-14.16q-.57 0-.57.57.02 18.27.05 36.55c.02 12.27 3.89 18.29 16.48 19.61q15.98 1.67 32.73-.2c9.4-1.05 16.1-5.3 16.24-15.55q.13-9.1-.01-40.37 0-.54-.54-.55l-13.86-.09q-.59 0-.58.59.14 19.38-.19 38.76c-.06 3.95-.94 6.92-5.02 7.7q-12.21 2.32-24.81-.05M420.43 214.5a.35.35 0 0 0 .31-.19l24.37-47.22a.35.35 0 0 1 .66.17l-1.08 46.88a.35.35 0 0 0 .35.36h14.36a.35.35 0 0 0 .35-.35v-56.03a.35.35 0 0 0-.35-.35l-24.29-.11a.35.35 0 0 0-.32.2l-20.72 41.88a.35.35 0 0 1-.63 0l-21.15-42.05a.35.35 0 0 0-.32-.19h-23.66a.35.35 0 0 0-.35.35l.04 56.3a.35.35 0 0 0 .35.35h14.29a.35.35 0 0 0 .35-.36l-1.14-46.16a.35.35 0 0 1 .66-.17l24.42 46.5a.35.35 0 0 0 .31.19h13.19M488.74 157.95a.29.29 0 0 0-.29-.29h-14.66a.29.29 0 0 0-.29.29v56.26a.29.29 0 0 0 .29.29h14.66a.29.29 0 0 0 .29-.29v-56.26M550.48 157.5a.31.31 0 0 0-.24.12l-17.89 22.27a.31.31 0 0 1-.48 0L514 157.64a.31.31 0 0 0-.24-.12l-16.85-.02a.31.31 0 0 0-.23.51l23.44 27a.31.31 0 0 1 0 .41l-25.27 28.56a.31.31 0 0 0 .23.52h17.14a.31.31 0 0 0 .24-.11l19.42-23.58a.31.31 0 0 1 .48 0l19.46 23.58a.31.31 0 0 0 .24.11h16.73a.31.31 0 0 0 .23-.51l-24.51-28.56a.31.31 0 0 1 0-.4l22.84-27.02a.31.31 0 0 0-.24-.51h-16.63" vector-effect="non-scaling-stroke"/>
  </g>
  <path fill="#010101" d="M588.98 208.23a24.07 24.07 0 0 1-24.07 24.07H213.85a24.07 24.07 0 0 1-24.07-24.07V66.57a24.07 24.07 0 0 1 24.07-24.07h351.06a24.07 24.07 0 0 1 24.07 24.07v141.66ZM230.7 96.58c12.73.7 26.04.49 29.06-13.56 2.39-11.13-3.12-21.66-14.92-22.84-8.39-.85-18.25-.51-30.63-.38q-.46.01-.46.47v51.96q0 .49.49.49l15.23.09q.53 0 .53-.53V97.25q0-.7.7-.67Zm296.798-36.517a.3.3 0 0 0-.3-.3l-13.88-.025a.3.3 0 0 0-.3.3l-.016 8.94a.3.3 0 0 0 .3.3l13.88.024a.3.3 0 0 0 .3-.3l.016-8.94ZM316 77.75v-1.98a.99.99 0 0 0-.98-.99l-12.23-.1q-.54 0-.54.53v36.94q0 .59.59.59l13.28.05q.52 0 .59-.52c.78-5.89-.14-12.39.22-19.54q.18-3.53 1.26-5.07c2.89-4.13 9.32-2.44 9.31 3.38q-.02 10.57.01 21.2 0 .48.48.48l14.34.09a.4.4 0 0 0 .4-.4q.06-10.56 0-21.16-.04-6.08-1-8.76c-4.09-11.44-16.93-10.8-24.9-4.34q-.83.67-.83-.4Zm167.63.1-.07-2.45q-.02-.65-.66-.66l-12.15-.22a.74.73.4 0 0-.75.73l-.08 36.98q-.01.55.55.55l13.53-.05q.49 0 .49-.48.03-9.31.01-18.63-.01-3.39.47-4.69c1.42-3.86 7.98-4.81 9.63-.98q.61 1.43.63 5.31.03 9.47.02 18.98 0 .51.51.51h13.98q.49 0 .51-.49.6-18.82.03-25.74c-1.16-14.02-16.43-16.33-25.83-8.3q-.79.67-.82-.37Zm-199.02 32.11.56 2.19q.14.56.72.56l13.42.12q.57.01.47-.56-.34-1.91-.65-3.83c-1.85-11.45 4.84-29.17-11.08-33.55-8.67-2.39-28.02-1.64-26.7 12.23q.06.63.7.65l11.58.31q.46.01.57-.43c2.73-10.38 16.24-.72 7.32 1.62-5.95 1.56-13.38 1.85-18.2 5.56-4.3 3.32-4.89 9.35-2.15 13.82 4.69 7.7 16.76 6.19 22.8 1.1q.49-.41.64.21Zm85.09.14.14 1.43a1.37 1.36-3 0 0 1.36 1.22h13.52q.48 0 .33-.45c-3.1-9.44 1.13-21.42-2.57-29.85-5.56-12.67-37.53-12.22-36.2 4.8q.04.49.52.5l11.87.38q.49.02.59-.47c2.03-10.27 15.63-.82 8.24 1.35-6.75 1.99-22.8 2.18-23 13.25-.25 13.74 16.5 14 24.46 7.53q.65-.52.74.31Zm31.58-24.28a1.62 1.61-39.1 0 1 .27-2.61q5.65-3.22 8.59 2.14.22.4.67.4h12.35a.37.37 0 0 0 .36-.43c-1.55-8.91-8.14-11.08-16.42-11.5-7.46-.38-18.3 1.29-20.33 9.91-3.04 12.9 12.52 13.96 20.48 15.53 3.97.78 3.78 5.19.03 5.96q-6.36 1.3-7.82-4.57-.1-.4-.52-.4h-12.2q-.57 0-.57.57c.03 14.94 22.61 15.16 31.54 10.9 7.33-3.49 9.28-13.03 4.21-18.34-4.01-4.2-12.21-5.58-18.09-6.49q-1.64-.25-2.55-1.07Zm31.04-7.11c-10.7 8.79-8.35 27.52 4.42 33.3 5.93 2.68 13.8 2.63 19.79-.13 10.99-5.08 14.58-18.56 8.47-28.8-6.45-10.81-23.49-11.92-32.68-4.37Zm115.62 6.15c2.97-1.36 6.7-.01 7.52 3.53q.14.57.72.57l12.3.12a.42.42 0 0 0 .43-.47c-3.13-24.54-47.61-17.26-38.21 12.41 5.78 18.24 36.91 17.75 38.67-3.27a.69.69 0 0 0-.68-.75h-11.7q-.53 0-.7.5c-1.32 3.72-2.08 7.4-7.37 5.84-7.17-2.1-7.24-15.62-.98-18.48Zm-20.66-9.9a.26.26 0 0 0-.26-.26h-13.76a.26.26 0 0 0-.26.26v37.56a.26.26 0 0 0 .26.26h13.76a.26.26 0 0 0 .26-.26V74.96Zm57.9 50.88c-16.81-.26-33.59-.1-50.26-.09q-170.71.02-341.43-.01a.51.5 90 0 0-.5.51q.05 39.31-.02 78.65c-.03 14.78 7.31 24.3 23.28 24.3q170.91.04 341.82.05 9.99 0 14.17-1.5c9.58-3.46 13.49-11.66 13.51-21.51q.06-39.87-.03-79.85 0-.54-.54-.55Z"/>
  <path fill="#fff" d="M230 97.25v15.03q0 .53-.53.53l-15.23-.09q-.49 0-.49-.49V60.27q0-.46.46-.47c12.38-.13 22.24-.47 30.63.38 11.8 1.18 17.31 11.71 14.92 22.84-3.02 14.05-16.33 14.26-29.06 13.56q-.7-.03-.7.67Zm.2-24.29-.04 10.56a.2.2 0 0 0 .2.21l8.58.03a5.82 4.86.2 0 0 5.84-4.84v-1.24a5.82 4.86.2 0 0-5.8-4.88l-8.58-.03a.2.2 0 0 0-.2.19Z"/>
  <rect width="14.48" height="9.54" x="-7.24" y="-4.77" fill="#fff" rx=".3" transform="rotate(.1 -36707.103 298113.477)"/>
  <path fill="#010101" d="M230.2 72.96a.2.2 0 0 1 .2-.19l8.58.03a5.82 4.86.2 0 1 5.8 4.88v1.24a5.82 4.86.2 0 1-5.84 4.84l-8.58-.03a.2.2 0 0 1-.2-.21l.04-10.56Z"/>
  <path fill="#fff" d="M316.83 78.15c7.97-6.46 20.81-7.1 24.9 4.34q.96 2.68 1 8.76.06 10.6 0 21.16a.4.4 0 0 1-.4.4l-14.34-.09q-.48 0-.48-.48-.03-10.63-.01-21.2c.01-5.82-6.42-7.51-9.31-3.38q-1.08 1.54-1.26 5.07c-.36 7.15.56 13.65-.22 19.54q-.07.52-.59.52l-13.28-.05q-.59 0-.59-.59V75.21q0-.53.54-.53l12.23.1a.99.99 0 0 1 .98.99v1.98q0 1.07.83.4ZM484.45 78.22c9.4-8.03 24.67-5.72 25.83 8.3q.57 6.92-.03 25.74-.02.49-.51.49h-13.98q-.51 0-.51-.51.01-9.51-.02-18.98-.02-3.88-.63-5.31c-1.65-3.83-8.21-2.88-9.63.98q-.48 1.3-.47 4.69.02 9.32-.01 18.63 0 .48-.49.48l-13.53.05q-.56 0-.55-.55l.08-36.98a.74.73.4 0 1 .75-.73l12.15.22q.64.01.66.66l.07 2.45q.03 1.04.82.37ZM283.97 109.75c-6.04 5.09-18.11 6.6-22.8-1.1-2.74-4.47-2.15-10.5 2.15-13.82 4.82-3.71 12.25-4 18.2-5.56 8.92-2.34-4.59-12-7.32-1.62q-.11.44-.57.43l-11.58-.31q-.64-.02-.7-.65c-1.32-13.87 18.03-14.62 26.7-12.23 15.92 4.38 9.23 22.1 11.08 33.55q.31 1.92.65 3.83.1.57-.47.56l-13.42-.12q-.58 0-.72-.56l-.56-2.19q-.15-.62-.64-.21Zm.19-13.42c-2.82 1-7.26 1.99-9.41 3.17-2.89 1.59-1.61 5.25 1.59 5.45q8.74.55 8.46-8.18a.48.48 0 0 0-.64-.44ZM368.96 109.79c-7.96 6.47-24.71 6.21-24.46-7.53.2-11.07 16.25-11.26 23-13.25 7.39-2.17-6.21-11.62-8.24-1.35q-.1.49-.59.47l-11.87-.38q-.48-.01-.52-.5c-1.33-17.02 30.64-17.47 36.2-4.8 3.7 8.43-.53 20.41 2.57 29.85q.15.45-.33.45H371.2a1.37 1.36-3 0 1-1.36-1.22l-.14-1.43q-.09-.83-.74-.31Zm.12-13.43c-2.71.86-7.09 1.89-9.33 3.13-3.34 1.85-1.05 5.76 1.73 5.76q8.63 0 8.26-8.44-.03-.65-.66-.45ZM401.28 85.82q.91.82 2.55 1.07c5.88.91 14.08 2.29 18.09 6.49 5.07 5.31 3.12 14.85-4.21 18.34-8.93 4.26-31.51 4.04-31.54-10.9q0-.57.57-.57h12.2q.42 0 .52.4 1.46 5.87 7.82 4.57c3.75-.77 3.94-5.18-.03-5.96-7.96-1.57-23.52-2.63-20.48-15.53 2.03-8.62 12.87-10.29 20.33-9.91 8.28.42 14.87 2.59 16.42 11.5a.37.37 0 0 1-.36.43h-12.35q-.45 0-.67-.4-2.94-5.36-8.59-2.14a1.62 1.61-39.1 0 0-.27 2.61Z"/>
  <path fill="#fff" d="M436.74 112.01c-12.77-5.78-15.12-24.51-4.42-33.3 9.19-7.55 26.23-6.44 32.68 4.37 6.11 10.24 2.52 23.72-8.47 28.8-5.99 2.76-13.86 2.81-19.79.13Zm9.93-7.23a10.53 6.49 90 0 0 6.49-10.53 10.53 6.49 90 0 0-6.49-10.53 10.53 6.49 90 0 0-6.49 10.53 10.53 6.49 90 0 0 6.49 10.53ZM555.46 88.39c-.82-3.54-4.55-4.89-7.52-3.53-6.26 2.86-6.19 16.38.98 18.48 5.29 1.56 6.05-2.12 7.37-5.84q.17-.5.7-.5h11.7a.69.69 0 0 1 .68.75c-1.76 21.02-32.89 21.51-38.67 3.27-9.4-29.67 35.08-36.95 38.21-12.41a.42.42 0 0 1-.43.47l-12.3-.12q-.58 0-.72-.57Z"/>
  <rect width="14.28" height="38.08" x="513" y="74.7" fill="#fff" rx=".26"/>
  <ellipse fill="#010101" rx="10.53" ry="6.49" transform="rotate(90 176.21 270.46)"/>
  <path fill="#010101" d="M274.75 99.5c2.15-1.18 6.59-2.17 9.41-3.17a.48.48 0 0 1 .64.44q.28 8.73-8.46 8.18c-3.2-.2-4.48-3.86-1.59-5.45ZM359.75 99.49c2.24-1.24 6.62-2.27 9.33-3.13q.63-.2.66.45.37 8.44-8.26 8.44c-2.78 0-5.07-3.91-1.73-5.76Z"/>
  <path fill="#fff" d="M534.92 125.75c16.67-.01 33.45-.17 50.26.09q.54.01.54.55.09 39.98.03 79.85c-.02 9.85-3.93 18.05-13.51 21.51q-4.18 1.5-14.17 1.5-170.91-.01-341.82-.05c-15.97 0-23.31-9.52-23.28-24.3q.07-39.34.02-78.65a.51.5-90 0 1 .5-.51q170.72.03 341.43.01Zm-305.34 76.5a.33.33 0 0 1-.33-.33v-61.09a.33.33 0 0 0-.33-.33h-14.84a.33.33 0 0 0-.33.33v73.34a.33.33 0 0 0 .33.33h66.81a.33.33 0 0 0 .33-.33l.09-11.59a.33.33 0 0 0-.33-.33h-51.4Zm79.63 2.22c-3.17-.59-5.24-2.52-5.22-5.73q.07-20.32-.02-40.72 0-.52-.52-.52h-14.16q-.57 0-.57.57.02 18.27.05 36.55c.02 12.27 3.89 18.29 16.48 19.61q15.98 1.67 32.73-.2c9.4-1.05 16.1-5.3 16.24-15.55q.13-9.1-.01-40.37 0-.54-.54-.55l-13.86-.09q-.59 0-.58.59.14 19.38-.19 38.76c-.06 3.95-.94 6.92-5.02 7.7q-12.21 2.32-24.81-.05Zm111.22 10.03a.35.35 0 0 0 .31-.19l24.37-47.22a.35.35 0 0 1 .66.17l-1.08 46.88a.35.35 0 0 0 .35.36h14.36a.35.35 0 0 0 .35-.35v-56.03a.35.35 0 0 0-.35-.35l-24.29-.11a.35.35 0 0 0-.32.2l-20.72 41.88a.35.35 0 0 1-.63 0l-21.15-42.05a.35.35 0 0 0-.32-.19h-23.66a.35.35 0 0 0-.35.35l.04 56.3a.35.35 0 0 0 .35.35h14.29a.35.35 0 0 0 .35-.36l-1.14-46.16a.35.35 0 0 1 .66-.17l24.42 46.5a.35.35 0 0 0 .31.19h13.19Zm68.31-56.55a.29.29 0 0 0-.29-.29h-14.66a.29.29 0 0 0-.29.29v56.26a.29.29 0 0 0 .29.29h14.66a.29.29 0 0 0 .29-.29v-56.26Zm61.74-.45a.31.31 0 0 0-.24.12l-17.89 22.27a.31.31 0 0 1-.48 0L514 157.64a.31.31 0 0 0-.24-.12l-16.85-.02a.31.31 0 0 0-.23.51l23.44 27a.31.31 0 0 1 0 .41l-25.27 28.56a.31.31 0 0 0 .23.52h17.14a.31.31 0 0 0 .24-.11l19.42-23.58a.31.31 0 0 1 .48 0l19.46 23.58a.31.31 0 0 0 .24.11h16.73a.31.31 0 0 0 .23-.51l-24.51-28.56a.31.31 0 0 1 0-.4l22.84-27.02a.31.31 0 0 0-.24-.51h-16.63Z"/>
  <path fill="#010101" d="M229.58 202.25h51.4a.33.33 0 0 1 .33.33l-.09 11.59a.33.33 0 0 1-.33.33h-66.81a.33.33 0 0 1-.33-.33v-73.34a.33.33 0 0 1 .33-.33h14.84a.33.33 0 0 1 .33.33v61.09a.33.33 0 0 0 .33.33ZM309.21 204.47q12.6 2.37 24.81.05c4.08-.78 4.96-3.75 5.02-7.7q.33-19.38.19-38.76-.01-.59.58-.59l13.86.09q.54.01.54.55.14 31.27.01 40.37c-.14 10.25-6.84 14.5-16.24 15.55q-16.75 1.87-32.73.2c-12.59-1.32-16.46-7.34-16.48-19.61q-.03-18.28-.05-36.55 0-.57.57-.57h14.16q.52 0 .52.52.09 20.4.02 40.72c-.02 3.21 2.05 5.14 5.22 5.73ZM420.43 214.5h-13.19a.35.35 0 0 1-.31-.19l-24.42-46.5a.35.35 0 0 0-.66.17l1.14 46.16a.35.35 0 0 1-.35.36h-14.29a.35.35 0 0 1-.35-.35l-.04-56.3a.35.35 0 0 1 .35-.35h23.66a.35.35 0 0 1 .32.19l21.15 42.05a.35.35 0 0 0 .63 0l20.72-41.88a.35.35 0 0 1 .32-.2l24.29.11a.35.35 0 0 1 .35.35v56.03a.35.35 0 0 1-.35.35h-14.36a.35.35 0 0 1-.35-.36l1.08-46.88a.35.35 0 0 0-.66-.17l-24.37 47.22a.35.35 0 0 1-.31.19Z"/>
  <rect width="15.24" height="56.84" x="473.5" y="157.66" fill="#010101" rx=".29"/>
  <path fill="#010101" d="M550.48 157.5h16.63a.31.31 0 0 1 .24.51l-22.84 27.02a.31.31 0 0 0 0 .4l24.51 28.56a.31.31 0 0 1-.23.51h-16.73a.31.31 0 0 1-.24-.11l-19.46-23.58a.31.31 0 0 0-.48 0l-19.42 23.58a.31.31 0 0 1-.24.11h-17.14a.31.31 0 0 1-.23-.52l25.27-28.56a.31.31 0 0 0 0-.41l-23.44-27a.31.31 0 0 1 .23-.51l16.85.02a.31.31 0 0 1 .24.12l17.87 22.25a.31.31 0 0 0 .48 0l17.89-22.27a.31.31 0 0 1 .24-.12Z"/>
</svg>