<?xml version="1.0" standalone="no"?><!DOCTYPE svg PUBLIC "-//W3C//DTD SVG 1.1//EN" "http://www.w3.org/Graphics/SVG/1.1/DTD/svg11.dtd"><svg t="1734673793539" class="icon" viewBox="0 0 1820 1024" version="1.1" xmlns="http://www.w3.org/2000/svg" p-id="2328" xmlns:xlink="http://www.w3.org/1999/xlink" width="355.46875" height="200"><path d="M718.222222 512c0 61.155556 45.511111 105.244444 120.888889 105.244444 31.288889 0 61.155556-5.688889 92.444445-19.911111l28.444444 38.4C920.177778 657.066667 883.2 668.444444 824.888889 668.444444c-120.888889 0-209.066667-58.311111-209.066667-156.444444S704 355.555556 824.888889 355.555556c58.311111 0 91.022222 8.533333 130.844444 25.6l-28.444444 44.088888c-31.288889-17.066667-56.888889-19.911111-89.6-19.911111-73.955556 1.422222-119.466667 45.511111-119.466667 106.666667m459.377778-156.444444c-116.622222 0-200.533333 58.311111-200.533333 156.444444s83.911111 156.444444 200.533333 156.444444 200.533333-58.311111 200.533333-156.444444S1294.222222 355.555556 1177.6 355.555556z m0 264.533333c-64 0-99.555556-48.355556-99.555556-108.088889s35.555556-108.088889 99.555556-108.088889 99.555556 48.355556 99.555556 108.088889-35.555556 108.088889-99.555556 108.088889z m503.466667-85.333333v125.155555h96.711111V364.088889h-96.711111v113.777778h-146.488889v-113.777778h-96.711111v297.244444h96.711111v-125.155555h146.488889z m-1224.533334-170.666667h100.977778v297.244444h-100.977778V364.088889z m-290.133333 135.111111v28.444444c48.355556 36.977778 96.711111 85.333333 132.266667 132.266667h113.777777c-39.822222-46.933333-99.555556-100.977778-145.066666-129.422222 52.622222-2.844444 110.933333-22.755556 110.933333-83.911111 0-76.8-82.488889-91.022222-166.4-91.022222-68.266667 0-130.844444 2.844444-167.822222 5.688888v297.244445h93.866667V408.177778c17.066667-1.422222 36.977778-4.266667 73.955555-4.266667 48.355556 0 73.955556 15.644444 73.955556 44.088889 0 24.177778-9.955556 52.622222-119.466667 51.2z" fill="#DF3232" p-id="2329"></path></svg>